<svg xmlns="http://www.w3.org/2000/svg" viewBox="0 0 32 32">
  <!-- Dark background -->
  <rect width="32" height="32" rx="6" fill="#0a0a0a"/>

  <!-- O — built from paths (bold geometric) -->
  <path d="M3 10 C3 6.5 5.5 4.5 8.5 4.5 C11.5 4.5 14 6.5 14 10 L14 18 C14 21.5 11.5 23.5 8.5 23.5 C5.5 23.5 3 21.5 3 18 Z M5.5 10 L5.5 18 C5.5 20 6.8 21.2 8.5 21.2 C10.2 21.2 11.5 20 11.5 18 L11.5 10 C11.5 8 10.2 6.8 8.5 6.8 C6.8 6.8 5.5 8 5.5 10 Z" fill="#ffffff"/>

  <!-- S — built from paths (bold geometric) -->
  <path d="M16 19.5 C16 22 18 24 21 24 C24 24 26.5 22 26.5 19.5 C26.5 17 24.8 15.8 22.5 15 L20.5 14.2 C19.2 13.7 18.5 13 18.5 12 C18.5 10.8 19.5 10 21 10 C22.5 10 23.5 10.8 23.5 12 L26 12 C26 9.5 24 8 21 8 C18 8 16 9.8 16 12.2 C16 14.5 17.5 15.8 19.8 16.6 L21.8 17.4 C23.2 17.9 24 18.6 24 19.8 C24 21 22.8 21.8 21 21.8 C19.2 21.8 18 21 18 19.5 Z" fill="#3dba7e"/>

  <!-- dot -->
  <circle cx="29" cy="23" r="1.8" fill="#3dba7e"/>
</svg>
